<svg width="118" height="50" viewBox="0 0 118 50" fill="none" xmlns="http://www.w3.org/2000/svg">
<rect y="9.67749" width="40.3226" height="40.3226" fill="#84BDB3"/>
<rect x="9.67749" width="40.3226" height="40.3226" fill="#A8F8E9"/>
<rect x="9.67749" y="9.67749" width="30.6452" height="30.6452" fill="#8EDACC"/>
<path d="M56.1758 42.4219V27.8086C56.1758 27.5039 56.2852 27.2422 56.5039 27.0234C56.7227 26.8047 56.9844 26.6953 57.2891 26.6953H59.4688C59.7891 26.6953 60.0547 26.8047 60.2656 27.0234C60.4844 27.2422 60.5938 27.5039 60.5938 27.8086V42.3984C60.5938 42.7031 60.4805 42.9648 60.2539 43.1836C60.0352 43.3945 59.7734 43.5 59.4688 43.5H57.2891C56.9844 43.5 56.7227 43.3984 56.5039 43.1953C56.2852 42.9844 56.1758 42.7266 56.1758 42.4219ZM63.7227 42.7852V31.3828C63.7227 31.1719 63.7891 31 63.9219 30.8672C64.0625 30.7266 64.2344 30.6562 64.4375 30.6562H67.0625C67.2656 30.6562 67.4336 30.7266 67.5664 30.8672C67.707 31 67.7773 31.1719 67.7773 31.3828V32.1211C69.1211 30.9883 70.5508 30.4219 72.0664 30.4219C73.5898 30.4219 74.8281 30.8867 75.7812 31.8164C76.7344 32.7383 77.2109 34.1523 77.2109 36.0586V42.7852C77.2109 42.9883 77.1406 43.1602 77 43.3008C76.8672 43.4336 76.6953 43.5 76.4844 43.5H73.8711C73.668 43.5 73.4961 43.4336 73.3555 43.3008C73.2227 43.1602 73.1562 42.9883 73.1562 42.7852V36.0586C73.1562 34.1914 72.4102 33.2578 70.918 33.2578C69.9414 33.2578 68.8945 33.8164 67.7773 34.9336V42.7852C67.7773 42.9883 67.707 43.1602 67.5664 43.3008C67.4336 43.4336 67.2656 43.5 67.0625 43.5H64.4375C64.2344 43.5 64.0625 43.4336 63.9219 43.3008C63.7891 43.1602 63.7227 42.9883 63.7227 42.7852ZM85.1211 43.7344C83.4883 43.7344 82.1211 43.1602 81.0195 42.0117C79.9258 40.8633 79.3789 39.2188 79.3789 37.0781C79.3789 34.9297 79.9453 33.2852 81.0781 32.1445C82.2188 30.9961 83.75 30.4219 85.6719 30.4219C86.6641 30.4219 87.793 30.6211 89.0586 31.0195V27.4219C89.0586 27.2109 89.125 27.0391 89.2578 26.9062C89.3984 26.7656 89.5703 26.6953 89.7734 26.6953H92.3867C92.5977 26.6953 92.7695 26.7656 92.9023 26.9062C93.043 27.0391 93.1133 27.2109 93.1133 27.4219V42.7852C93.1133 42.9883 93.043 43.1602 92.9023 43.3008C92.7695 43.4336 92.5977 43.5 92.3867 43.5H90.1367C89.9258 43.5 89.7539 43.4336 89.6211 43.3008C89.4883 43.1602 89.4219 42.9883 89.4219 42.7852V42.4219C88.1875 43.2969 86.7539 43.7344 85.1211 43.7344ZM86.5156 33.2578C85.4375 33.2578 84.6758 33.5625 84.2305 34.1719C83.7852 34.7734 83.5625 35.7422 83.5625 37.0781C83.5625 38.4141 83.7734 39.3867 84.1953 39.9961C84.6172 40.6055 85.25 40.9102 86.0938 40.9102C86.9453 40.9102 87.9336 40.5586 89.0586 39.8555V33.7266C88.0508 33.4141 87.2031 33.2578 86.5156 33.2578ZM95.9961 28.207V27.8086C95.9961 27.3945 96.1133 27.0664 96.3477 26.8242C96.5898 26.582 96.9219 26.4609 97.3438 26.4609H98.7969C99.2109 26.4609 99.5391 26.582 99.7812 26.8242C100.023 27.0586 100.145 27.3867 100.145 27.8086V28.207C100.145 28.6211 100.023 28.9492 99.7812 29.1914C99.5469 29.4336 99.2188 29.5547 98.7969 29.5547H97.3438C96.9297 29.5547 96.6016 29.4336 96.3594 29.1914C96.1172 28.9492 95.9961 28.6211 95.9961 28.207ZM96.043 42.7852V31.6641C96.043 31.4531 96.1094 31.2812 96.2422 31.1484C96.3828 31.0156 96.5547 30.9492 96.7578 30.9492H99.3828C99.5938 30.9492 99.7656 31.0195 99.8984 31.1602C100.031 31.293 100.098 31.4609 100.098 31.6641V42.7852C100.098 42.9961 100.027 43.168 99.8867 43.3008C99.7539 43.4336 99.5859 43.5 99.3828 43.5H96.7578C96.5469 43.5 96.375 43.4336 96.2422 43.3008C96.1094 43.168 96.043 42.9961 96.043 42.7852ZM102.43 30.6562H104.68C105.016 30.6562 105.332 30.7539 105.629 30.9492C105.926 31.1367 106.137 31.3828 106.262 31.6875L109.461 38.9883L112.648 31.6875C112.773 31.3828 112.984 31.1367 113.281 30.9492C113.578 30.7539 113.895 30.6562 114.23 30.6562H116.492C116.766 30.6562 116.945 30.7578 117.031 30.9609C117.07 31.0391 117.086 31.1406 117.078 31.2656C117.078 31.3828 117.043 31.5234 116.973 31.6875L111.91 42.4688C111.77 42.7734 111.547 43.0234 111.242 43.2188C110.945 43.4062 110.637 43.5 110.316 43.5H108.594C108.273 43.5 107.965 43.4062 107.668 43.2188C107.371 43.0234 107.152 42.7734 107.012 42.4688L101.949 31.6875C101.871 31.5156 101.832 31.3711 101.832 31.2539C101.832 30.8555 102.031 30.6562 102.43 30.6562Z" fill="#49AABF"/>
</svg>
