<svg width="20" height="20" viewBox="0 0 20 20" fill="none" xmlns="http://www.w3.org/2000/svg">
<mask id="path-1-inside-1_375_61" fill="white">
<path fill-rule="evenodd" clip-rule="evenodd" d="M20 0H0V20H20V0ZM4 8.65957L5.24785 7.41172L9.29412 11.458L14.7521 5.99995L16 7.24781L9.29412 13.9537L4 8.65957Z"/>
</mask>
<path fill-rule="evenodd" clip-rule="evenodd" d="M20 0H0V20H20V0ZM4 8.65957L5.24785 7.41172L9.29412 11.458L14.7521 5.99995L16 7.24781L9.29412 13.9537L4 8.65957Z" fill="#84BDB3"/>
<path d="M0 0V-2H-2V0H0ZM20 0H22V-2H20V0ZM0 20H-2V22H0V20ZM20 20V22H22V20H20ZM5.24785 7.41172L6.66206 5.99751L5.24785 4.58329L3.83364 5.99751L5.24785 7.41172ZM4 8.65957L2.58579 7.24536L1.17157 8.65957L2.58579 10.0738L4 8.65957ZM9.29412 11.458L7.8799 12.8722L9.29412 14.2864L10.7083 12.8722L9.29412 11.458ZM14.7521 5.99995L16.1664 4.58574L14.7522 3.17153L13.3379 4.58574L14.7521 5.99995ZM16 7.24781L17.4142 8.66202L18.8284 7.24781L17.4142 5.83359L16 7.24781ZM9.29412 13.9537L7.8799 15.3679L9.29412 16.7821L10.7083 15.3679L9.29412 13.9537ZM0 2H20V-2H0V2ZM2 20V0H-2V20H2ZM20 18H0V22H20V18ZM18 0V20H22V0H18ZM3.83364 5.99751L2.58579 7.24536L5.41421 10.0738L6.66207 8.82593L3.83364 5.99751ZM10.7083 10.0438L6.66206 5.99751L3.83364 8.82593L7.8799 12.8722L10.7083 10.0438ZM13.3379 4.58574L7.8799 10.0438L10.7083 12.8722L16.1664 7.41417L13.3379 4.58574ZM17.4142 5.83359L16.1664 4.58574L13.3379 7.41417L14.5858 8.66202L17.4142 5.83359ZM10.7083 15.3679L17.4142 8.66202L14.5858 5.83359L7.8799 12.5395L10.7083 15.3679ZM2.58579 10.0738L7.8799 15.3679L10.7083 12.5395L5.41421 7.24536L2.58579 10.0738Z" fill="#84BDB3" mask="url(#path-1-inside-1_375_61)"/>
</svg>
